<svg width="300" height="400" viewBox="0 0 300 400" xmlns="http://www.w3.org/2000/svg">
  <path d="M90 60 C70 120 75 300 110 340 C170 360 220 330 215 290 C225 180 220 100 190 70 Z" fill="none" stroke="#000000" stroke-width="4"/>
  <path d="M120 95 C150 85 180 95 185 120 C175 135 135 130 120 115 Z" fill="none" stroke="#000000" stroke-width="4"/>
  <path d="M150 300 C148 305 150 315 155 318 C165 315 165 305 158 300 Z" fill="none" stroke="#ff0000" stroke-width="4"/>
  <path d="M105 160 L190 155" fill="none" stroke="#000000" stroke-width="4"/>
  <path d="M110 200 L185 210" fill="none" stroke="#000000" stroke-width="4"/>
  <path d="M115 240 L175 255" fill="none" stroke="#000000" stroke-width="4"/>
</svg>
