<svg xmlns="http://www.w3.org/2000/svg" width="400" height="400" viewBox="0 0 400 400">
  <path d="M90 170 C120 110 260 120 310 180 C300 185 110 190 90 170" fill="none" stroke="#8b5a2b" stroke-width="4"/>
  <path d="M110 260 C150 280 250 275 290 255 C285 270 120 285 110 260" fill="none" stroke="#8b5a2b" stroke-width="4"/>
  <path d="M105 220 C140 210 260 210 295 220 C285 235 120 235 105 220" fill="none" stroke="#3a2a1a" stroke-width="4"/>
  <path d="M115 205 C150 215 230 215 265 205 L255 225 C210 235 150 230 115 205" fill="none" stroke="#f2b705" stroke-width="4"/>
  <path d="M100 215 Q140 240 180 220 Q230 245 300 225" fill="none" stroke="#4caf50" stroke-width="4"/>

  <path d="M150 155 L160 150" fill="none" stroke="#222222" stroke-width="3"/>
  <path d="M190 150 L205 155" fill="none" stroke="#222222" stroke-width="3"/>
  <path d="M240 155 L230 160" fill="none" stroke="#222222" stroke-width="3"/>

  <path d="M170 230 Q165 250 175 265" fill="none" stroke="#d94f4f" stroke-width="3"/>
  <path d="M225 228 Q235 250 220 268" fill="none" stroke="#d94f4f" stroke-width="3"/>

  <path d="M130 245 Q140 255 155 250" fill="none" stroke="#222222" stroke-width="2"/>
  <path d="M260 248 Q250 258 235 252" fill="none" stroke="#222222" stroke-width="2"/>
</svg>
